<svg xmlns="http://www.w3.org/2000/svg" width="1920" height="200"><defs><marker class="arrow" id="arrow" viewBox="0 -5 10 10" refX="65" refY="0" markerUnits="userSpaceOnUse" markerWidth="9" markerHeight="16" orient="auto"><path fill="#666" d="M 0 -5 L 10 0 L 0 5" /></marker></defs><g svgWidth="all" width="1920" height="200"><defs><pattern class="patternClass" id="avatarmain0" patternUnits="objectBoundingBox" x="0" y="0" width="1" height="1"><image class="circle" width="90" xmlns:xlink="http://www.w3.org/1999/xlink" xlink:href="https://i.linkeddb.com/person2/454a/b487/1d914307a22bc2bf790d9b48.jpg" /><rect opacity="0.5" fill="black" x="0" y="60" width="90" height="30" /><text class="nodetext" fill="#fff" text-anchor="middle" x="45" y="80">冯小刚</text></pattern></defs><defs><pattern class="patternClass" id="avatarmain1" patternUnits="objectBoundingBox" x="0" y="0" width="1" height="1"><image class="circle" width="90" xmlns:xlink="http://www.w3.org/1999/xlink" xlink:href="https://i.linkeddb.com/person2/c84b/c66a/18e5f7d3868e97e1adb5bbfb.jpg" /><rect opacity="0.5" fill="black" x="0" y="60" width="90" height="30" /><text class="nodetext" fill="#fff" text-anchor="middle" x="45" y="80">徐帆</text></pattern></defs><defs><pattern class="patternClass" id="avatarmain2" patternUnits="objectBoundingBox" x="0" y="0" width="1" height="1"><image class="circle" width="90" xmlns:xlink="http://www.w3.org/1999/xlink" xlink:href="https://i.linkeddb.com/person2/2fcc/3145/6cfaf93bced656a967cb42ed.jpg" /><rect opacity="0.5" fill="black" x="0" y="60" width="90" height="30" /><text class="nodetext" fill="#fff" text-anchor="middle" x="45" y="80">葛优</text></pattern></defs><g class="edges" transform="translate(1850 50) rotate(178.391)"><path class="links" style="marker-end: url(&quot;#arrow&quot;);" stroke="#bad4ed" d="M 45 0 L 1780.7 0" refX="65" /><g class="rect_g"><rect fill="white" stroke="#bad4ed" x="869.35" y="-8.95" width="42" height="18.25" /></g><g class="text_g"><text text-anchor="middle" transform="rotate(180 890.351 0)" x="890.3511" y="0" dy="0.3em">妻子</text></g></g><g class="edges" transform="translate(1850 150) rotate(-178.391)"><path class="links" style="marker-end: url(&quot;#arrow&quot;);" stroke="#bad4ed" d="M 45 0 L 1780.7 0" refX="65" /><g class="rect_g"><rect fill="white" stroke="#bad4ed" x="869.35" y="-8.95" width="42" height="18.25" /></g><g class="text_g"><text text-anchor="middle" transform="rotate(180 890.351 0)" x="890.3511" y="0" dy="0.3em">搭档</text></g></g><circle fill="url(#avatarmain0)" stroke="#ccf1fc" stroke-width="5" cx="70" cy="100" r="45" /><circle fill="url(#avatarmain1)" stroke="#ccf1fc" stroke-width="5" cx="1850" cy="50" r="45" /><circle fill="url(#avatarmain2)" stroke="#ccf1fc" stroke-width="5" cx="1850" cy="150" r="45" /></g></svg>